<svg width="1440" height="1126" viewBox="0 0 1440 1126" fill="none" xmlns="http://www.w3.org/2000/svg">
<path fill-rule="evenodd" clip-rule="evenodd" d="M1664.57 1.20309C1664.57 1.47923 1664.35 1.70309 1664.07 1.70309L1625.23 1.70308V151.527H1664.07C1664.35 151.527 1664.57 151.75 1664.57 152.027C1664.57 152.303 1664.35 152.527 1664.07 152.527H1625.23V302.35H1664.07C1664.35 302.35 1664.57 302.574 1664.57 302.85C1664.57 303.126 1664.35 303.35 1664.07 303.35H1625.23V453.174H1664.07C1664.35 453.174 1664.57 453.397 1664.57 453.674C1664.57 453.95 1664.35 454.174 1664.07 454.174H1625.23V603.997H1664.07C1664.35 603.997 1664.57 604.221 1664.57 604.497C1664.57 604.773 1664.35 604.997 1664.07 604.997H1625.23V754.82H1664.07C1664.35 754.82 1664.57 755.044 1664.57 755.32C1664.57 755.597 1664.35 755.82 1664.07 755.82H1625.23V905.644H1664.07C1664.35 905.644 1664.57 905.868 1664.57 906.144C1664.57 906.42 1664.35 906.644 1664.07 906.644H1625.23V1056.47H1664.07C1664.35 1056.47 1664.57 1056.69 1664.57 1056.97C1664.57 1057.24 1664.35 1057.47 1664.07 1057.47H1625.23V1124.51C1625.23 1124.79 1625 1125.01 1624.73 1125.01C1624.45 1125.01 1624.23 1124.79 1624.23 1124.51V1057.47H1474.4V1124.51C1474.4 1124.79 1474.18 1125.01 1473.9 1125.01C1473.63 1125.01 1473.4 1124.79 1473.4 1124.51V1057.47H1323.58V1124.51C1323.58 1124.79 1323.36 1125.01 1323.08 1125.01C1322.8 1125.01 1322.58 1124.79 1322.58 1124.51V1057.47H1172.76V1124.51C1172.76 1124.79 1172.53 1125.01 1172.26 1125.01C1171.98 1125.01 1171.76 1124.79 1171.76 1124.51V1057.47H1021.93V1124.51C1021.93 1124.79 1021.71 1125.01 1021.43 1125.01C1021.16 1125.01 1020.93 1124.79 1020.93 1124.51V1057.47H871.11V1124.51C871.11 1124.79 870.886 1125.01 870.61 1125.01C870.334 1125.01 870.11 1124.79 870.11 1124.51V1057.47H720.287V1124.51C720.287 1124.79 720.063 1125.01 719.787 1125.01C719.511 1125.01 719.287 1124.79 719.287 1124.51V1057.47H569.463V1124.51C569.463 1124.79 569.239 1125.01 568.963 1125.01C568.687 1125.01 568.463 1124.79 568.463 1124.51V1057.47H418.639V1124.51C418.639 1124.79 418.416 1125.01 418.139 1125.01C417.863 1125.01 417.639 1124.79 417.639 1124.51V1057.47H267.816V1124.51C267.816 1124.79 267.592 1125.01 267.316 1125.01C267.04 1125.01 266.816 1124.79 266.816 1124.51V1057.47H116.992V1124.51C116.992 1124.79 116.769 1125.01 116.492 1125.01C116.216 1125.01 115.992 1124.79 115.992 1124.51V1057.47H-33.8312V1124.51C-33.8312 1124.79 -34.055 1125.01 -34.3312 1125.01C-34.6073 1125.01 -34.8312 1124.79 -34.8312 1124.51V1057.47H-184.654V1124.51C-184.654 1124.79 -184.878 1125.01 -185.154 1125.01C-185.43 1125.01 -185.654 1124.79 -185.654 1124.51V1057.47H-224.5C-224.776 1057.47 -225 1057.24 -225 1056.97C-225 1056.69 -224.776 1056.47 -224.5 1056.47H-185.654V906.644H-224.5C-224.776 906.644 -225 906.42 -225 906.144C-225 905.868 -224.776 905.644 -224.5 905.644H-185.654V755.82H-224.5C-224.776 755.82 -225 755.597 -225 755.32C-225 755.044 -224.776 754.82 -224.5 754.82H-185.654V604.997H-224.5C-224.776 604.997 -225 604.773 -225 604.497C-225 604.221 -224.776 603.997 -224.5 603.997H-185.654V454.173H-224.5C-224.776 454.173 -225 453.95 -225 453.673C-225 453.397 -224.776 453.173 -224.5 453.173H-185.654V303.35H-224.5C-224.776 303.35 -225 303.126 -225 302.85C-225 302.574 -224.776 302.35 -224.5 302.35H-185.654V152.527H-224.5C-224.776 152.527 -225 152.303 -225 152.027C-225 151.75 -224.776 151.527 -224.5 151.527H-185.654V1.703L-224.5 1.703C-224.776 1.703 -225 1.47915 -225 1.203C-225 0.926861 -224.776 0.703003 -224.5 0.703003L-185.154 0.703085H-34.3312H116.492H267.316H418.139H568.963H719.787H870.61H1021.43H1172.26H1323.08H1473.9H1624.73H1664.07C1664.35 0.703085 1664.57 0.926943 1664.57 1.20309ZM-184.654 1056.47H-34.8312V906.644H-184.654V1056.47ZM-33.8312 1056.47H115.992V906.644H-33.8312V1056.47ZM116.992 1056.47H266.816V906.644H116.992V1056.47ZM267.816 1056.47H417.639V906.644H267.816V1056.47ZM418.639 1056.47H568.463V906.644H418.639V1056.47ZM569.463 1056.47H719.287V906.644H569.463V1056.47ZM720.287 1056.47H870.11V906.644H720.287V1056.47ZM871.11 1056.47H1020.93V906.644H871.11V1056.47ZM1021.93 1056.47H1171.76V906.644H1021.93V1056.47ZM1172.76 1056.47H1322.58V906.644H1172.76V1056.47ZM1323.58 1056.47H1473.4V906.644H1323.58V1056.47ZM1474.4 1056.47H1624.23V906.644H1474.4V1056.47ZM1624.23 755.82V905.644H1474.4V755.82H1624.23ZM1473.4 755.82V905.644H1323.58V755.82H1473.4ZM1322.58 755.82V905.644H1172.76V755.82H1322.58ZM1171.76 755.82V905.644H1021.93V755.82H1171.76ZM1020.93 755.82V905.644H871.11V755.82H1020.93ZM870.11 755.82V905.644H720.287V755.82H870.11ZM719.287 755.82V905.644H569.463V755.82H719.287ZM568.463 755.82V905.644H418.639V755.82H568.463ZM417.639 755.82V905.644H267.816V755.82H417.639ZM266.816 755.82V905.644H116.992V755.82H266.816ZM115.992 755.82V905.644H-33.8312V755.82H115.992ZM-34.8312 755.82V905.644H-184.654V755.82H-34.8312ZM-184.654 754.82H-34.8312V604.997H-184.654V754.82ZM-33.8312 754.82H115.992V604.997H-33.8312V754.82ZM116.992 754.82H266.816V604.997H116.992V754.82ZM267.816 754.82H417.639V604.997H267.816V754.82ZM418.639 754.82H568.463V604.997H418.639V754.82ZM569.463 754.82H719.287V604.997H569.463V754.82ZM720.287 754.82H870.11V604.997H720.287V754.82ZM871.11 754.82H1020.93V604.997H871.11V754.82ZM1021.93 754.82H1171.76V604.997H1021.93V754.82ZM1172.76 754.82H1322.58V604.997H1172.76V754.82ZM1323.58 754.82H1473.4V604.997H1323.58V754.82ZM1474.4 754.82H1624.23V604.997H1474.4V754.82ZM1624.23 454.174V603.997H1474.4V454.174H1624.23ZM1473.4 454.174V603.997H1323.58V454.174L1473.4 454.174ZM1322.58 454.174V603.997H1172.76V454.174H1322.58ZM1171.76 454.174V603.997H1021.93V454.174H1171.76ZM1020.93 454.174V603.997H871.11V454.174H1020.93ZM870.11 454.174V603.997H720.287V454.174H870.11ZM719.287 454.174V603.997H569.463V454.174H719.287ZM568.463 454.174V603.997H418.639V454.174H568.463ZM417.639 454.174V603.997H267.816V454.174H417.639ZM266.816 454.174V603.997H116.992V454.174H266.816ZM115.992 454.174V603.997H-33.8312V454.173L115.992 454.174ZM-34.8312 454.173V603.997H-184.654V454.173H-34.8312ZM-184.654 453.173H-34.8312V303.35H-184.654V453.173ZM-33.8312 453.173L115.992 453.174V303.35L-33.8312 303.35V453.173ZM116.992 453.174H266.816V303.35H116.992V453.174ZM267.816 453.174H417.639V303.35H267.816V453.174ZM418.639 453.174H568.463V303.35H418.639V453.174ZM569.463 453.174H719.287V303.35H569.463V453.174ZM720.287 453.174H870.11V303.35H720.287V453.174ZM871.11 453.174H1020.93V303.35H871.11V453.174ZM1021.93 453.174H1171.76V303.35H1021.93V453.174ZM1172.76 453.174H1322.58V303.35H1172.76V453.174ZM1323.58 453.174L1473.4 453.174V303.35L1323.58 303.35V453.174ZM1474.4 453.174H1624.23V303.35H1474.4V453.174ZM1624.23 152.527V302.35H1474.4V152.527L1624.23 152.527ZM1473.4 152.527V302.35L1323.58 302.35V152.527H1473.4ZM1322.58 152.527V302.35H1172.76V152.527H1322.58ZM1171.76 152.527V302.35H1021.93V152.527L1171.76 152.527ZM1020.93 152.527V302.35H871.11V152.527H1020.93ZM870.11 152.527V302.35H720.287V152.527H870.11ZM719.287 152.527V302.35H569.463V152.527H719.287ZM568.463 152.527V302.35H418.639V152.527H568.463ZM417.639 152.527V302.35H267.816V152.527L417.639 152.527ZM266.816 152.527V302.35H116.992V152.527H266.816ZM115.992 152.527V302.35L-33.8312 302.35V152.527H115.992ZM-34.8312 152.527V302.35H-184.654V152.527L-34.8312 152.527ZM-184.654 151.527L-34.8312 151.527V1.70301L-184.654 1.703V151.527ZM-33.8312 151.527H115.992V1.70302L-33.8312 1.70301V151.527ZM116.992 151.527H266.816V1.70302L116.992 1.70302V151.527ZM267.816 151.527L417.639 151.527V1.70303L267.816 1.70302V151.527ZM418.639 151.527H568.463V1.70304L418.639 1.70303V151.527ZM569.463 151.527H719.287V1.70304L569.463 1.70304V151.527ZM720.287 151.527H870.11V1.70305L720.287 1.70304V151.527ZM871.11 151.527H1020.93V1.70306L871.11 1.70305V151.527ZM1021.93 151.527L1171.76 151.527V1.70306L1021.93 1.70306V151.527ZM1172.76 151.527H1322.58V1.70307L1172.76 1.70306V151.527ZM1323.58 151.527H1473.4V1.70308L1323.58 1.70307V151.527ZM1474.4 151.527L1624.23 151.527V1.70308L1474.4 1.70308V151.527Z" fill="url(#paint0_linear_403_109)"/>
<defs>
<linearGradient id="paint0_linear_403_109" x1="719.786" y1="0.703003" x2="719.786" y2="1125.01" gradientUnits="userSpaceOnUse">
<stop stop-color="#EAEAEA" stop-opacity="0"/>
<stop offset="0.507244" stop-color="#EAEAEA"/>
<stop offset="1" stop-color="#EAEAEA" stop-opacity="0"/>
</linearGradient>
</defs>
</svg>
