<svg width="175" height="48" viewBox="0 0 175 48" fill="none" xmlns="http://www.w3.org/2000/svg">
<path d="M70.192 17.016C71.536 17.016 72.7307 17.3147 73.776 17.912C74.8213 18.488 75.632 19.352 76.208 20.504C76.8053 21.6347 77.104 23 77.104 24.6V35H72.624V25.208C72.624 23.8 72.272 22.7227 71.568 21.976C70.864 21.208 69.904 20.824 68.688 20.824C67.4507 20.824 66.4693 21.208 65.744 21.976C65.04 22.7227 64.688 23.8 64.688 25.208V35H60.208V11.32H64.688V19.48C65.264 18.712 66.032 18.1147 66.992 17.688C67.952 17.24 69.0187 17.016 70.192 17.016ZM83.9562 15.16C83.1669 15.16 82.5056 14.9147 81.9722 14.424C81.4602 13.912 81.2042 13.2827 81.2042 12.536C81.2042 11.7893 81.4602 11.1707 81.9722 10.68C82.5056 10.168 83.1669 9.912 83.9562 9.912C84.7456 9.912 85.3962 10.168 85.9082 10.68C86.4416 11.1707 86.7083 11.7893 86.7083 12.536C86.7083 13.2827 86.4416 13.912 85.9082 14.424C85.3962 14.9147 84.7456 15.16 83.9562 15.16ZM86.1642 17.272V35H81.6842V17.272H86.1642ZM95.3905 11.32V35H90.9105V11.32H95.3905ZM122.153 17.016C124.329 17.016 126.078 17.688 127.401 19.032C128.745 20.3547 129.417 22.2107 129.417 24.6V35H124.937V25.208C124.937 23.8213 124.585 22.7653 123.881 22.04C123.177 21.2933 122.217 20.92 121.001 20.92C119.785 20.92 118.814 21.2933 118.089 22.04C117.385 22.7653 117.033 23.8213 117.033 25.208V35H112.553V25.208C112.553 23.8213 112.201 22.7653 111.497 22.04C110.793 21.2933 109.833 20.92 108.617 20.92C107.379 20.92 106.398 21.2933 105.673 22.04C104.969 22.7653 104.617 23.8213 104.617 25.208V35H100.137V17.272H104.617V19.416C105.193 18.6693 105.929 18.0827 106.825 17.656C107.742 17.2293 108.745 17.016 109.833 17.016C111.219 17.016 112.457 17.3147 113.545 17.912C114.633 18.488 115.475 19.32 116.073 20.408C116.649 19.384 117.481 18.5627 118.569 17.944C119.678 17.3253 120.873 17.016 122.153 17.016ZM132.836 26.072C132.836 24.28 133.188 22.6907 133.892 21.304C134.617 19.9173 135.588 18.8507 136.804 18.104C138.041 17.3573 139.417 16.984 140.932 16.984C142.255 16.984 143.407 17.2507 144.388 17.784C145.391 18.3173 146.191 18.9893 146.788 19.8V17.272H151.3V35H146.788V32.408C146.212 33.24 145.412 33.9333 144.388 34.488C143.385 35.0213 142.223 35.288 140.9 35.288C139.407 35.288 138.041 34.904 136.804 34.136C135.588 33.368 134.617 32.2907 133.892 30.904C133.188 29.496 132.836 27.8853 132.836 26.072ZM146.788 26.136C146.788 25.048 146.575 24.12 146.148 23.352C145.721 22.5627 145.145 21.9653 144.42 21.56C143.695 21.1333 142.916 20.92 142.084 20.92C141.252 20.92 140.484 21.1227 139.78 21.528C139.076 21.9333 138.5 22.5307 138.052 23.32C137.625 24.088 137.412 25.0053 137.412 26.072C137.412 27.1387 137.625 28.0773 138.052 28.888C138.5 29.6773 139.076 30.2853 139.78 30.712C140.505 31.1387 141.273 31.352 142.084 31.352C142.916 31.352 143.695 31.1493 144.42 30.744C145.145 30.3173 145.721 29.72 146.148 28.952C146.575 28.1627 146.788 27.224 146.788 26.136ZM165.819 17.016C167.931 17.016 169.638 17.688 170.939 19.032C172.241 20.3547 172.891 22.2107 172.891 24.6V35H168.411V25.208C168.411 23.8 168.059 22.7227 167.355 21.976C166.651 21.208 165.691 20.824 164.475 20.824C163.238 20.824 162.257 21.208 161.531 21.976C160.827 22.7227 160.475 23.8 160.475 25.208V35H155.995V17.272H160.475V19.48C161.073 18.712 161.83 18.1147 162.747 17.688C163.686 17.24 164.71 17.016 165.819 17.016Z" fill="white"/>
<g clip-path="url(#clip0_430_41)">
<rect x="28.3105" y="-11" width="7.46806" height="72.6209" transform="rotate(30 28.3105 -11)" fill="white"/>
<rect x="13.3105" y="-23" width="7.46806" height="72.6209" transform="rotate(30 13.3105 -23)" fill="white"/>
<rect x="45.3105" y="-4" width="7.46806" height="72.6209" transform="rotate(30 45.3105 -4)" fill="white"/>
<rect x="58.3105" y="18" width="7.46806" height="72.6209" transform="rotate(30 58.3105 18)" fill="white"/>
</g>
<defs>
<clipPath id="clip0_430_41">
<rect width="48" height="48" fill="white"/>
</clipPath>
</defs>
</svg>
